<?xml version="1.0" encoding="UTF-8"?>
<!DOCTYPE svg PUBLIC "-//W3C//DTD SVG 1.1//EN" "http://www.w3.org/Graphics/SVG/1.1/DTD/svg11.dtd">
<svg xmlns="http://www.w3.org/2000/svg" version="1.1" width="512px" height="512px" style="shape-rendering:geometricPrecision; text-rendering:geometricPrecision; image-rendering:optimizeQuality; fill-rule:evenodd; clip-rule:evenodd" xmlns:xlink="http://www.w3.org/1999/xlink">
<g><path style="opacity:0.96" fill="#000000" d="M -0.5,278.5 C -0.5,263.167 -0.5,247.833 -0.5,232.5C 5.70626,170.76 30.7063,118.093 74.5,74.5C 81.9857,81.4854 89.319,88.652 96.5,96C 36.5107,159.35 17.3441,233.516 39,318.5C 49.8789,355.782 69.0456,387.949 96.5,415C 89.319,422.348 81.9857,429.515 74.5,436.5C 30.7063,392.907 5.70626,340.24 -0.5,278.5 Z"/></g>
<g><path style="opacity:0.96" fill="#000000" d="M 511.5,232.5 C 511.5,247.833 511.5,263.167 511.5,278.5C 505.293,340.241 480.293,392.908 436.5,436.5C 429.014,429.515 421.681,422.348 414.5,415C 474.488,351.653 493.655,277.487 472,192.5C 461.121,155.218 441.954,123.051 414.5,96C 421.681,88.652 429.014,81.4854 436.5,74.5C 480.293,118.092 505.293,170.759 511.5,232.5 Z"/></g>
<g><path style="opacity:0.959" fill="#000000" d="M 119.5,119.5 C 127.146,126.479 134.479,133.812 141.5,141.5C 94.1662,193.339 82.6662,252.339 107,318.5C 115.565,337.55 127.065,354.55 141.5,369.5C 134.515,376.986 127.348,384.319 120,391.5C 78.2232,349.188 59.5566,298.188 64,238.5C 68.5338,192.11 87.0338,152.443 119.5,119.5 Z"/></g>
<g><path style="opacity:0.959" fill="#000000" d="M 390.5,119.5 C 432.696,161.561 451.529,212.561 447,272.5C 442.559,319.041 423.892,358.707 391,391.5C 383.652,384.319 376.485,376.986 369.5,369.5C 416.833,317.664 428.333,258.664 404,192.5C 395.435,173.45 383.935,156.45 369.5,141.5C 376.521,134.146 383.521,126.813 390.5,119.5 Z"/></g>
<g><path style="opacity:0.957" fill="#000000" d="M 164.5,164.5 C 172.298,171.798 179.965,179.298 187.5,187C 160.257,215.815 152.423,249.315 164,287.5C 169.012,301.507 176.846,313.673 187.5,324C 180,331.5 172.5,339 165,346.5C 127.742,305.543 118.408,258.876 137,206.5C 143.939,190.933 153.105,176.933 164.5,164.5 Z"/></g>
<g><path style="opacity:0.957" fill="#000000" d="M 345.5,164.5 C 375.647,195.365 387.814,232.365 382,275.5C 377.135,302.898 365.135,326.565 346,346.5C 338.5,339 331,331.5 323.5,324C 351.551,294.086 359.051,259.586 346,220.5C 340.866,207.728 333.366,196.562 323.5,187C 331.036,179.632 338.369,172.132 345.5,164.5 Z"/></g>
<g><path style="opacity:0.98" fill="#000000" d="M 250.5,191.5 C 292.127,192.795 315.127,214.128 319.5,255.5C 315.833,294.5 294.5,315.833 255.5,319.5C 216.5,315.833 195.167,294.5 191.5,255.5C 194.624,218.716 214.29,197.383 250.5,191.5 Z"/></g>
</svg>
